<svg width="189" height="40" viewBox="0 0 189 40" fill="none" xmlns="http://www.w3.org/2000/svg">
<path d="M0 20C0 8.95431 8.95431 0 20 0C31.0457 0 40 8.95431 40 20C40 31.0457 31.0457 40 20 40C8.95431 40 0 31.0457 0 20Z" fill="url(#paint0_linear_605_2078)"/>
<path d="M22.5 27.5V20.8333C22.5 20.6123 22.4122 20.4004 22.2559 20.2441C22.0996 20.0878 21.8877 20 21.6667 20H18.3333C18.1123 20 17.9004 20.0878 17.7441 20.2441C17.5878 20.4004 17.5 20.6123 17.5 20.8333V27.5" stroke="white" stroke-width="1.66667" stroke-linecap="round" stroke-linejoin="round"/>
<path d="M12.5 18.3331C12.4999 18.0906 12.5528 17.8511 12.6548 17.6312C12.7569 17.4113 12.9057 17.2162 13.0908 17.0597L18.9242 12.0597C19.225 11.8055 19.6061 11.666 20 11.666C20.3939 11.666 20.775 11.8055 21.0758 12.0597L26.9092 17.0597C27.0943 17.2162 27.2431 17.4113 27.3452 17.6312C27.4472 17.8511 27.5001 18.0906 27.5 18.3331V25.8331C27.5 26.2751 27.3244 26.699 27.0118 27.0116C26.6993 27.3242 26.2754 27.4997 25.8333 27.4997H14.1667C13.7246 27.4997 13.3007 27.3242 12.9882 27.0116C12.6756 26.699 12.5 26.2751 12.5 25.8331V18.3331Z" stroke="white" stroke-width="1.66667" stroke-linecap="round" stroke-linejoin="round"/>
<path d="M52.032 32.256C51.072 32.256 50.3893 32.1173 49.984 31.84C49.5787 31.5413 49.3333 31.168 49.248 30.72C49.1627 30.2507 49.12 29.7813 49.12 29.312V12.8C49.12 12.3307 49.1627 11.872 49.248 11.424C49.3333 10.976 49.5787 10.6133 49.984 10.336C50.3893 10.0373 51.0827 9.888 52.064 9.888H58.496C59.3067 9.888 60.1813 10.0587 61.12 10.4C62.0587 10.72 62.944 11.2213 63.776 11.904C64.608 12.5867 65.2907 13.44 65.824 14.464C66.3573 15.488 66.624 16.704 66.624 18.112C66.624 19.0933 66.4747 20.0107 66.176 20.864C65.8987 21.7173 65.472 22.496 64.896 23.2C64.3413 23.8827 63.6587 24.4907 62.848 25.024C62.0587 25.536 61.152 25.9413 60.128 26.24H54.976V29.344C54.976 29.8133 54.9333 30.272 54.848 30.72C54.7627 31.168 54.5173 31.5413 54.112 31.84C53.7067 32.1173 53.0133 32.256 52.032 32.256ZM65.44 31.488C64.48 32.2133 63.7227 32.5013 63.168 32.352C62.6133 32.224 62.016 31.7333 61.376 30.88L55.488 22.88L62.144 22.048L66.112 27.392C66.5387 28.0107 66.8053 28.5333 66.912 28.96C67.04 29.3867 66.9867 29.792 66.752 30.176C66.5173 30.56 66.08 30.9973 65.44 31.488ZM54.976 20.416H58.496C58.688 20.416 58.912 20.384 59.168 20.32C59.4453 20.2347 59.7013 20.1067 59.936 19.936C60.1707 19.744 60.3627 19.4987 60.512 19.2C60.6827 18.9013 60.768 18.528 60.768 18.08C60.768 17.632 60.6613 17.2373 60.448 16.896C60.2347 16.5333 59.9467 16.256 59.584 16.064C59.2427 15.8507 58.8587 15.744 58.432 15.744H54.976V20.416ZM75.9348 32.64C74.3348 32.64 72.9801 32.384 71.8708 31.872C70.7614 31.3387 69.8654 30.656 69.1828 29.824C68.5001 28.9707 67.9988 28.0533 67.6788 27.072C67.3588 26.0907 67.1988 25.1413 67.1988 24.224C67.1988 22.5387 67.5721 21.056 68.3188 19.776C69.0654 18.496 70.1001 17.4933 71.4227 16.768C72.7454 16.0427 74.2601 15.68 75.9668 15.68C77.2894 15.68 78.4201 15.8933 79.3588 16.32C80.2974 16.7467 81.0548 17.2907 81.6308 17.952C82.2281 18.6133 82.6654 19.3173 82.9428 20.064C83.2201 20.8107 83.3588 21.504 83.3588 22.144C83.3588 23.36 83.0601 24.288 82.4628 24.928C81.8654 25.568 81.0974 25.888 80.1588 25.888H73.3428C73.4281 26.2293 73.5988 26.528 73.8548 26.784C74.1321 27.0187 74.4734 27.2107 74.8788 27.36C75.2841 27.488 75.7214 27.552 76.1908 27.552C76.6601 27.552 77.0761 27.5307 77.4388 27.488C77.8014 27.424 78.1108 27.3493 78.3668 27.264C78.6441 27.1787 78.8894 27.0933 79.1028 27.008C79.3374 26.9227 79.5401 26.8587 79.7108 26.816C79.9028 26.752 80.0841 26.72 80.2548 26.72C80.6388 26.72 80.9908 26.848 81.3108 27.104C81.6308 27.36 81.9188 27.744 82.1748 28.256C82.3241 28.5333 82.4308 28.8 82.4948 29.056C82.5588 29.2907 82.5908 29.5147 82.5908 29.728C82.5908 30.368 82.3241 30.9013 81.7908 31.328C81.2788 31.7547 80.5321 32.0747 79.5508 32.288C78.5694 32.5227 77.3641 32.64 75.9348 32.64ZM73.3428 22.88H76.9268C77.2254 22.88 77.4388 22.816 77.5668 22.688C77.7161 22.56 77.7908 22.368 77.7908 22.112C77.7908 21.8347 77.7054 21.6 77.5348 21.408C77.3854 21.216 77.1721 21.0773 76.8948 20.992C76.6174 20.8853 76.2868 20.832 75.9028 20.832C75.3908 20.832 74.9428 20.9387 74.5588 21.152C74.1748 21.344 73.8761 21.6 73.6628 21.92C73.4708 22.2187 73.3641 22.5387 73.3428 22.88ZM87.6838 32.256C86.7238 32.256 86.0411 32.1173 85.6358 31.84C85.2304 31.5413 84.9851 31.168 84.8997 30.72C84.8358 30.272 84.8038 29.8133 84.8038 29.344V18.816C84.8038 18.3467 84.8464 17.8987 84.9318 17.472C85.0171 17.0453 85.2624 16.704 85.6678 16.448C86.0731 16.1707 86.7558 16.032 87.7158 16.032C88.5904 16.032 89.2198 16.1493 89.6038 16.384C90.0091 16.5973 90.2651 16.864 90.3718 17.184C90.4784 17.504 90.5211 17.8027 90.4998 18.08C90.4998 18.336 90.5211 18.496 90.5638 18.56L90.3078 18.752C90.2864 18.432 90.4038 18.112 90.6598 17.792C90.9371 17.472 91.2891 17.184 91.7158 16.928C92.1638 16.6507 92.6331 16.4373 93.1238 16.288C93.6358 16.1173 94.1158 16.032 94.5638 16.032C95.6304 16.032 96.5691 16.2347 97.3798 16.64C98.1904 17.0453 98.8624 17.6213 99.3958 18.368C99.9504 19.0933 100.366 19.9467 100.644 20.928C100.921 21.9093 101.06 22.976 101.06 24.128V29.376C101.06 29.8453 101.017 30.304 100.932 30.752C100.846 31.2 100.601 31.5627 100.196 31.84C99.8118 32.1173 99.1291 32.256 98.1478 32.256C97.1664 32.256 96.4731 32.1173 96.0678 31.84C95.6624 31.5413 95.4171 31.168 95.3318 30.72C95.2464 30.272 95.2038 29.8133 95.2038 29.344V24.128C95.2038 23.6373 95.1078 23.2213 94.9158 22.88C94.7451 22.5387 94.4891 22.2827 94.1478 22.112C93.8278 21.92 93.4224 21.824 92.9318 21.824C92.4624 21.824 92.0464 21.92 91.6838 22.112C91.3424 22.304 91.0758 22.5707 90.8838 22.912C90.6918 23.2533 90.5958 23.6587 90.5958 24.128V29.376C90.5958 29.8453 90.5531 30.304 90.4678 30.752C90.3824 31.2 90.1371 31.5627 89.7318 31.84C89.3478 32.1173 88.6651 32.256 87.6838 32.256ZM111.32 32.288C110.19 32.288 109.208 32.16 108.376 31.904C107.544 31.648 106.851 31.2533 106.296 30.72C105.763 30.1867 105.358 29.5147 105.08 28.704C104.824 27.8933 104.696 26.944 104.696 25.856V13.44C104.696 12.9493 104.739 12.5013 104.824 12.096C104.91 11.6693 105.155 11.328 105.56 11.072C105.966 10.7947 106.648 10.656 107.608 10.656C108.547 10.656 109.219 10.8053 109.624 11.104C110.03 11.3813 110.275 11.744 110.36 12.192C110.446 12.64 110.488 13.0987 110.488 13.568V25.568C110.488 25.8027 110.499 26.0053 110.52 26.176C110.563 26.3253 110.616 26.4427 110.68 26.528C110.744 26.6133 110.83 26.6773 110.936 26.72C111.043 26.7627 111.182 26.784 111.352 26.784C111.907 26.784 112.398 26.8267 112.824 26.912C113.272 26.9973 113.614 27.2213 113.848 27.584C114.104 27.9467 114.232 28.5547 114.232 29.408C114.232 30.368 114.083 31.0507 113.784 31.456C113.486 31.8613 113.112 32.096 112.664 32.16C112.216 32.2453 111.768 32.288 111.32 32.288ZM104.024 16.224H107.768L112.184 16.064C112.654 16.064 113.102 16.1067 113.528 16.192C113.976 16.2773 114.339 16.5227 114.616 16.928C114.915 17.3333 115.064 18.0267 115.064 19.008C115.064 19.904 114.915 20.5547 114.616 20.96C114.339 21.3653 113.976 21.6213 113.528 21.728C113.102 21.8347 112.643 21.888 112.152 21.888L108.088 21.792H103.896C103.171 21.7493 102.67 21.5147 102.392 21.088C102.115 20.6613 101.976 19.9573 101.976 18.976C101.976 18.0587 102.147 17.376 102.488 16.928C102.83 16.4587 103.342 16.224 104.024 16.224ZM131.578 32.608C130.277 32.608 129.168 32.448 128.25 32.128C127.354 31.808 126.618 31.4347 126.042 31.008C125.466 30.56 125.029 30.1547 124.73 29.792C124.432 29.4293 124.25 29.2053 124.186 29.12C123.76 28.5867 123.493 28.1067 123.386 27.68C123.301 27.2533 123.365 26.8267 123.578 26.4C123.813 25.9733 124.197 25.504 124.73 24.992C125.221 24.5227 125.701 24.2667 126.17 24.224C126.64 24.16 127.098 24.256 127.546 24.512C128.016 24.768 128.464 25.1413 128.89 25.632C129.402 26.208 129.84 26.6027 130.202 26.816C130.565 27.008 130.981 27.104 131.45 27.104C132.026 27.104 132.496 27.04 132.858 26.912C133.221 26.7627 133.488 26.5493 133.658 26.272C133.829 25.9733 133.914 25.6 133.914 25.152C133.914 24.7893 133.733 24.512 133.37 24.32C133.008 24.1067 132.528 23.9253 131.93 23.776C131.354 23.6267 130.704 23.4667 129.978 23.296C129.253 23.104 128.538 22.8587 127.834 22.56C127.408 22.3893 126.992 22.176 126.586 21.92C126.181 21.664 125.797 21.376 125.434 21.056C125.093 20.7147 124.794 20.32 124.538 19.872C124.282 19.4027 124.08 18.88 123.93 18.304C123.802 17.728 123.738 17.0773 123.738 16.352C123.738 15.0507 124.058 13.888 124.698 12.864C125.36 11.84 126.256 11.0293 127.386 10.432C128.538 9.83467 129.84 9.536 131.29 9.536C132.336 9.536 133.232 9.62133 133.978 9.792C134.725 9.96267 135.333 10.1653 135.802 10.4C136.293 10.6347 136.666 10.8587 136.922 11.072C137.178 11.264 137.338 11.392 137.402 11.456C138.106 12.096 138.49 12.6507 138.554 13.12C138.618 13.568 138.362 14.2187 137.786 15.072C137.146 15.9893 136.517 16.512 135.898 16.64C135.28 16.7467 134.565 16.544 133.754 16.032C133.584 15.904 133.413 15.7653 133.242 15.616C133.072 15.4453 132.837 15.3067 132.538 15.2C132.261 15.072 131.834 15.008 131.258 15.008C131.045 15.008 130.832 15.0507 130.618 15.136C130.405 15.2 130.224 15.296 130.074 15.424C129.925 15.5307 129.797 15.6693 129.69 15.84C129.605 16.0107 129.562 16.192 129.562 16.384C129.562 16.832 129.733 17.184 130.074 17.44C130.416 17.6747 130.864 17.856 131.418 17.984C131.994 18.112 132.624 18.24 133.306 18.368C133.989 18.496 134.682 18.6667 135.386 18.88C135.962 19.072 136.517 19.3173 137.05 19.616C137.584 19.9147 138.053 20.2987 138.458 20.768C138.864 21.2373 139.184 21.824 139.418 22.528C139.674 23.2107 139.802 24.0533 139.802 25.056C139.802 26.4427 139.536 27.6267 139.002 28.608C138.469 29.568 137.776 30.3467 136.922 30.944C136.09 31.52 135.194 31.936 134.234 32.192C133.296 32.4693 132.41 32.608 131.578 32.608ZM154.202 32.224C153.242 32.224 152.527 32.064 152.058 31.744C151.61 31.424 151.397 31.0613 151.418 30.656H151.866C151.759 30.8053 151.546 31.008 151.226 31.264C150.927 31.4987 150.522 31.7227 150.01 31.936C149.498 32.128 148.869 32.224 148.122 32.224C147.162 32.224 146.234 32.0107 145.338 31.584C144.463 31.136 143.674 30.528 142.97 29.76C142.287 28.992 141.743 28.128 141.338 27.168C140.933 26.1867 140.73 25.1627 140.73 24.096C140.73 23.0507 140.933 22.048 141.338 21.088C141.743 20.128 142.298 19.2747 143.002 18.528C143.706 17.76 144.495 17.1627 145.37 16.736C146.245 16.288 147.162 16.064 148.122 16.064C148.847 16.064 149.455 16.1707 149.946 16.384C150.458 16.5973 150.863 16.832 151.162 17.088C151.482 17.344 151.695 17.5573 151.802 17.728H151.45C151.429 17.1947 151.642 16.7787 152.09 16.48C152.559 16.1813 153.274 16.032 154.234 16.032C155.194 16.032 155.866 16.1813 156.25 16.48C156.655 16.7573 156.901 17.12 156.986 17.568C157.071 18.016 157.114 18.4747 157.114 18.944V29.344C157.114 29.8133 157.071 30.272 156.986 30.72C156.901 31.168 156.655 31.5307 156.25 31.808C155.866 32.0853 155.183 32.224 154.202 32.224ZM148.922 26.432C149.327 26.432 149.69 26.3253 150.01 26.112C150.351 25.8987 150.618 25.6213 150.81 25.28C151.023 24.9173 151.13 24.5333 151.13 24.128C151.13 23.7013 151.023 23.3173 150.81 22.976C150.618 22.6347 150.351 22.3573 150.01 22.144C149.669 21.9307 149.285 21.824 148.858 21.824C148.431 21.824 148.037 21.9307 147.674 22.144C147.333 22.3573 147.055 22.6453 146.842 23.008C146.629 23.3493 146.522 23.7333 146.522 24.16C146.522 24.5653 146.629 24.9387 146.842 25.28C147.077 25.6213 147.375 25.8987 147.738 26.112C148.101 26.3253 148.495 26.432 148.922 26.432ZM163.823 32.32C162.884 32.32 162.212 32.1813 161.807 31.904C161.401 31.6053 161.156 31.232 161.071 30.784C160.985 30.3147 160.943 29.8453 160.943 29.376V14.944C160.943 14.2613 161.071 13.5573 161.327 12.832C161.583 12.0853 161.977 11.4027 162.511 10.784C163.065 10.144 163.759 9.632 164.591 9.248C165.444 8.84267 166.457 8.64 167.631 8.64C168.1 8.64 168.559 8.68267 169.007 8.768C169.455 8.85333 169.817 9.09867 170.095 9.504C170.393 9.888 170.543 10.5707 170.543 11.552C170.543 12.512 170.393 13.1947 170.095 13.6C169.796 14.0053 169.423 14.2507 168.975 14.336C168.527 14.4 168.068 14.432 167.599 14.432C167.449 14.432 167.321 14.4427 167.215 14.464C167.108 14.4853 167.023 14.5173 166.959 14.56C166.895 14.5813 166.841 14.624 166.799 14.688C166.777 14.752 166.767 14.816 166.767 14.88V29.44C166.767 29.9093 166.724 30.368 166.639 30.816C166.553 31.2427 166.297 31.6053 165.871 31.904C165.465 32.1813 164.783 32.32 163.823 32.32ZM160.271 16.224H164.015L168.431 16.064C168.9 16.064 169.348 16.1067 169.775 16.192C170.223 16.2773 170.585 16.5227 170.863 16.928C171.161 17.3333 171.311 18.0267 171.311 19.008C171.311 19.904 171.161 20.5547 170.863 20.96C170.585 21.3653 170.223 21.6213 169.775 21.728C169.348 21.8347 168.889 21.888 168.399 21.888L164.335 21.792H160.143C159.417 21.7493 158.916 21.5147 158.639 21.088C158.361 20.6613 158.223 19.9573 158.223 18.976C158.223 18.0587 158.393 17.376 158.735 16.928C159.076 16.4587 159.588 16.224 160.271 16.224ZM180.372 32.64C178.772 32.64 177.418 32.384 176.308 31.872C175.199 31.3387 174.303 30.656 173.62 29.824C172.938 28.9707 172.436 28.0533 172.116 27.072C171.796 26.0907 171.636 25.1413 171.636 24.224C171.636 22.5387 172.01 21.056 172.756 19.776C173.503 18.496 174.538 17.4933 175.86 16.768C177.183 16.0427 178.698 15.68 180.404 15.68C181.727 15.68 182.858 15.8933 183.796 16.32C184.735 16.7467 185.492 17.2907 186.068 17.952C186.666 18.6133 187.103 19.3173 187.38 20.064C187.658 20.8107 187.796 21.504 187.796 22.144C187.796 23.36 187.498 24.288 186.9 24.928C186.303 25.568 185.535 25.888 184.596 25.888H177.78C177.866 26.2293 178.036 26.528 178.292 26.784C178.57 27.0187 178.911 27.2107 179.316 27.36C179.722 27.488 180.159 27.552 180.628 27.552C181.098 27.552 181.514 27.5307 181.876 27.488C182.239 27.424 182.548 27.3493 182.804 27.264C183.082 27.1787 183.327 27.0933 183.54 27.008C183.775 26.9227 183.978 26.8587 184.148 26.816C184.34 26.752 184.522 26.72 184.692 26.72C185.076 26.72 185.428 26.848 185.748 27.104C186.068 27.36 186.356 27.744 186.612 28.256C186.762 28.5333 186.868 28.8 186.932 29.056C186.996 29.2907 187.028 29.5147 187.028 29.728C187.028 30.368 186.762 30.9013 186.228 31.328C185.716 31.7547 184.97 32.0747 183.988 32.288C183.007 32.5227 181.802 32.64 180.372 32.64ZM177.78 22.88H181.364C181.663 22.88 181.876 22.816 182.004 22.688C182.154 22.56 182.228 22.368 182.228 22.112C182.228 21.8347 182.143 21.6 181.972 21.408C181.823 21.216 181.61 21.0773 181.332 20.992C181.055 20.8853 180.724 20.832 180.34 20.832C179.828 20.832 179.38 20.9387 178.996 21.152C178.612 21.344 178.314 21.6 178.1 21.92C177.908 22.2187 177.802 22.5387 177.78 22.88Z" fill="#2B2F38"/>
<defs>
<linearGradient id="paint0_linear_605_2078" x1="20" y1="0" x2="20" y2="40" gradientUnits="userSpaceOnUse">
<stop stop-color="#6B4EFF"/>
<stop offset="1" stop-color="#9B7EFF"/>
</linearGradient>
</defs>
</svg>
